<svg id="Layer_1" xmlns="http://www.w3.org/2000/svg" viewBox="0 0 209.8 38.5"><style>.st0{fill:#fff}</style><path class="st0" d="M96 16.4c0 1.4.8 2.5 1.8 2.5s1.8-1.1 1.8-2.5-.8-2.5-1.8-2.5-1.8 1-1.8 2.5m-13.4-4.3c0 2.3.6 4.2 1.4 4.2.8 0 1.4-1.9 1.4-4.2s-.6-4.2-1.4-4.2-1.4 2-1.4 4.2M19.9 24.9c-1.2 1.1-1.8 2.5-1.8 4.2 0 1.5.5 2.9 1.6 4s2.4 1.6 3.9 1.6c1 0 2-.3 2.8-.7.9-.5 1.5-1.2 2-2 .5-.9.7-1.8.7-2.8s-.2-1.9-.7-2.8c-.5-.9-1.2-1.5-2.1-2-.9-.5-1.8-.8-2.8-.8-1.4 0-2.6.5-3.6 1.3m1.5 6.5c-.6-.6-.8-1.4-.8-2.3 0-.9.3-1.7.9-2.3.6-.6 1.3-.9 2.1-.9.9 0 1.6.3 2.2.9.6.6.8 1.4.8 2.3 0 .9-.3 1.7-.9 2.3-.6.6-1.3.9-2.1.9-.8.1-1.5-.2-2.2-.9m9.5-11.5h2.6v14.5h-2.6zm6 5c-1.2 1.1-1.8 2.5-1.8 4.2 0 1.5.5 2.9 1.6 4s2.4 1.6 3.9 1.6c1 0 2-.3 2.8-.7.9-.5 1.5-1.2 2-2 .5-.9.7-1.8.7-2.8s-.2-1.9-.7-2.8c-.5-.9-1.2-1.5-2.1-2-.9-.5-1.8-.8-2.8-.8-1.4 0-2.6.5-3.6 1.3m1.5 6.5c-.6-.6-.8-1.4-.8-2.3 0-.9.3-1.7.9-2.3.6-.6 1.3-.9 2.1-.9.9 0 1.6.3 2.2.9.6.6.8 1.4.8 2.3 0 .9-.3 1.7-.9 2.3-.6.6-1.3.9-2.2.9-.9.1-1.6-.2-2.1-.9m13.8-7.5c-.5.2-1 .6-1.6 1.1l-.1.1v-1.2h-2.6v10.6h2.6v-4.2c0-1.1 0-1.8.1-2.2.1-.7.4-1.2.8-1.5.4-.4.9-.6 1.5-.6.4 0 .8.1 1.1.3s.5.6.6 1 .2 1.3.2 2.6v4.6h2.5v-7c0-1.2-.3-2.1-.9-2.8-.7-.7-1.6-1.1-2.7-1.1-.5 0-.9 0-1.5.3m7.6 0h2.6v10.6h-2.6zm6.1 1.2c-1 1-1.5 2.4-1.5 4s.5 2.9 1.5 4 2.2 1.6 3.6 1.6c.6 0 1.2-.1 1.7-.3s1-.6 1.6-1.1l.1-.1v1.2h2.6V23.8h-2.6v1.3l-.1-.1c-.5-.5-1-.8-1.6-1.1-.6-.2-1.2-.4-1.8-.4-1.5.1-2.5.6-3.5 1.6m1 4c0-.9.3-1.7.8-2.3.6-.6 1.3-.9 2.1-.9.9 0 1.6.3 2.2.9.6.6.9 1.4.9 2.3 0 1-.3 1.8-.9 2.4-.6.6-1.3.9-2.1.9s-1.5-.3-2.1-.9c-.6-.6-.9-1.4-.9-2.4m11-9.5h2.6v14.8h-2.6zm-19-2.2c0 1.2 1 2.2 2.2 2.2s2.2-1 2.2-2.2-1-2.2-2.2-2.2c-1.2-.1-2.2.9-2.2 2.2m10.7-.2c1.1 0 2-1.3 2-2.9 0-1.6-.9-2.9-2-2.9s-2 1.3-2 2.9.8 2.9 2 2.9m21.2-8.4c0 1.7.7 3.2 1.7 3.2.9 0 1.7-1.4 1.7-3.2 0-1.7-.7-3.2-1.6-3.2-1.1 0-1.8 1.3-1.8 3.2m-15.2 1.6c0 1.9.7 3.4 1.5 3.4s1.5-1.5 1.5-3.4S77.9 7 77.1 7c-1-.1-1.5 1.4-1.5 3.4M15.8 24.2c-1.3-1.4-2.8-2.1-4.4-2.1-1.4 0-2.6.5-3.6 1.4-1 1-1.4 2.2-1.4 3.6 0 1 .2 1.9.6 2.6.4.8 1 1.4 1.8 1.8.8.4 1.6.7 2.6.7.8 0 1.6-.2 2.2-.5.7-.3 1.4-.8 2.2-1.6.1.1 1.7 1.8 1.8 1.9-1 1-2 1.7-3 2.1-.9.4-2 .6-3.2.6-2.2 0-4.1-.7-5.5-2.1-1.4-1.4-2.1-3.2-2.1-5.5 0-1.4.3-2.7 1-3.8.6-1.1 1.6-2 2.8-2.7s2.5-1 3.9-1c1.2 0 2.3.3 3.4.8s2 1.2 2.8 2.1l-1.9 1.7zm77.7-.4s-3 6.9-3.3 7.6c-.3-.8-3.3-7.6-3.3-7.6h-1.6l4.6 10.7h.5L95 23.8h-1.5zm1.7 3.8c-.7.8-1.1 1.8-1.1 2.9 0 1.1.4 2.1 1.2 2.9.8.8 1.8 1.3 3 1.3s2.2-.4 3-1.3c.8-.8 1.2-1.8 1.2-2.9 0-1.1-.4-2.1-1.1-2.9-.8-.9-1.8-1.3-3.1-1.3s-2.3.3-3.1 1.3m1.8 5.3c-.4-.2-.8-.6-1-1s-.4-.9-.4-1.4c0-.8.3-1.5.8-2 .5-.6 1.2-.8 1.9-.8.8 0 1.4.3 1.9.8.6.6.8 1.2.8 2 0 .5-.1 1-.4 1.4-.2.4-.6.8-1 1s-.9.4-1.4.4c-.3-.1-.8-.2-1.2-.4m6.9-9.3h1.4v10.9h-1.4zm8.7 2.8v3.7c0 1.1-.1 1.6-.1 1.8-.1.4-.4.7-.7.9-.3.2-.8.4-1.3.4s-.9-.1-1.3-.4c-.4-.2-.6-.6-.7-1-.1-.3-.1-.9-.1-1.7v-3.7H107v3.9c0 1.1.1 1.9.4 2.5s.7 1 1.2 1.3 1.2.5 2 .5 1.4-.2 1.9-.5.9-.8 1.2-1.3c.3-.6.4-1.4.4-2.4v-3.9h-1.5v-.1zm5.3.2c-.4.2-.7.5-1 .8v-1h-1.4v8h1.4v-3c0-1 0-1.7.1-2 .1-.5.4-1 .9-1.3.4-.4.9-.5 1.5-.5.5 0 .8.1 1.1.3.3.2.5.6.6 1 .1.3.1.9.1 1.7v3.8h1.4v-4.1c0-1.1-.1-1.8-.3-2.4-.2-.5-.6-.9-1-1.3-.5-.3-1-.5-1.6-.5-.8.1-1.3.3-1.8.5m7-3v2.8h-1.4v1.2h1.4v6.8h1.3v-6.8h1.6v-1.2h-1.6v-2.8zm4.2 3.8c-.8.8-1.2 1.8-1.2 2.9 0 1.2.4 2.2 1.2 3 .8.8 1.8 1.2 2.9 1.2.6 0 1.2-.1 1.8-.4.4-.2.7-.5 1.1-.8v1h1.4v-8h-1.4v1.1c-.3-.3-.7-.6-1-.8-.5-.3-1.1-.4-1.8-.4-1.1 0-2.1.4-3 1.2m1.7 5.5c-.4-.3-.8-.6-1-1.1-.3-.5-.4-.9-.4-1.4s.1-1 .4-1.4c.2-.4.6-.8 1-1s.9-.4 1.4-.4c.8 0 1.4.3 2 .8.5.5.8 1.2.8 2.1 0 .5-.1 1-.4 1.5-.2.4-.6.8-1 1-.4.3-.9.4-1.4.4-.6 0-1.1-.3-1.4-.5m9.4-6.3c-.2.1-.4.3-.6.6v-.7h-1.4v8h1.4v-2.8c0-1.3.1-2.2.2-2.6.1-.5.4-.9.6-1.1.3-.2.5-.3.8-.3l.6.2.1-.1.6-1-.2-.1c-.3-.2-.7-.3-1-.3-.3-.2-.7 0-1.1.2m9-.2s-2.1 4.8-2.4 5.5c-.3-.7-2.5-5.5-2.5-5.5h-1.5s3.1 7 3.2 7.2c-.1.2-1.6 3.6-1.6 3.6h1.5l4.7-10.8h-1.4zm4.9-2.6v10.7h3c1.1 0 1.9-.3 2.6-.9.6-.6 1-1.4 1-2.2 0-.4-.1-.8-.3-1.2-.2-.4-.4-.7-.7-1-.2-.2-.6-.4-.9-.5.3-.2.6-.5.7-.8.2-.4.4-.9.4-1.3 0-.5-.1-1-.4-1.4s-.7-.8-1.1-1c-.5-.2-1.1-.3-2-.3h-2.3v-.1zm2.4 1.3c.7 0 1.2.1 1.4.4.3.2.4.5.4 1 0 .3-.1.6-.3.8-.2.3-.4.4-.7.6-.3.1-.8.2-1.5.2h-.4v-2.9h1.1v-.1zm-.5 4.3c.9 0 1.4 0 1.8.1.5.1.9.3 1.1.6.3.3.4.7.4 1.1 0 .3-.1.6-.3.9-.2.3-.4.5-.8.6-.3.1-.9.2-1.6.2h-1.1v-3.5h.5zm6.9-1.6c-.6.8-.9 1.7-.9 2.7 0 1.1.4 2 1.1 2.9s1.8 1.3 3.1 1.3c.6 0 1.1-.1 1.6-.3s.9-.4 1.3-.8c.4-.3.7-.8 1-1.3l.1-.2-1.2-.6-.1.2c-.3.5-.6.8-.8 1-.2.2-.5.4-.9.5-.3.1-.7.2-1.1.2-.8 0-1.4-.3-1.9-.8s-.7-1.1-.8-1.8h6.8v-.2c0-1.1-.3-2-.9-2.7-.8-1-1.9-1.5-3.3-1.5-1.2-.2-2.4.4-3.1 1.4m1.3.4c.5-.4 1.1-.7 1.8-.7.4 0 .8.1 1.2.3.4.2.7.4.9.7.2.2.3.6.4.9h-5.1c.4-.5.6-.8.8-1.2m9.8-1.6c-.4.2-.7.5-1 .8v-1h-1.4v8h1.4v-3c0-1 0-1.7.1-2 .1-.5.4-1 .9-1.3.4-.4.9-.5 1.5-.5.5 0 .8.1 1.1.3.3.2.5.6.6 1 .1.3.1.9.1 1.7v3.8h1.4v-4.1c0-1.1-.1-1.8-.3-2.4-.2-.5-.6-.9-1-1.3-.5-.3-1-.5-1.6-.5-.8.1-1.3.3-1.8.5m12.5 5.5c-.2.2-.3.4-.5.5-.2.2-.5.4-.9.5-.3.1-.7.2-1.1.2-.8 0-1.4-.3-1.9-.8s-.7-1.1-.8-1.8h6.8v-.2c0-1.1-.3-2-.9-2.7-.8-1-1.9-1.5-3.3-1.5-1.3 0-2.4.5-3.2 1.5-.6.8-.9 1.7-.9 2.7 0 1.1.4 2 1.1 2.9s1.8 1.3 3.1 1.3c.6 0 1.1-.1 1.6-.3s.9-.4 1.3-.8c.2-.2.4-.5.6-.8l-1-.7zm-4.3-3.9c.5-.4 1.1-.7 1.8-.7.4 0 .8.1 1.2.3.4.2.7.4.9.7.2.2.3.6.4.9h-5.1c.4-.5.6-.8.8-1.2m8.3-4.6c-.3.2-.5.4-.6.7s-.2.7-.2 1.2v1h-1v1.2h1v6.7h1.4v-6.7h1.6v-1.2H191V25l.2-.2c.1-.1.2-.1.4-.1s.5.1.8.2l.3.1v-1.4h-.1c-.5-.1-.9-.2-1.2-.2-.4 0-.6 0-.9.2m3.6 0c-.2.2-.3.4-.3.7s.1.5.3.7c.2.2.4.3.7.3.3 0 .5-.1.7-.3s.3-.4.3-.7-.1-.5-.3-.7c-.2-.2-.4-.3-.7-.3-.3.1-.6.1-.7.3m0 10.8h1.4v-8h-1.4v8zm3.9-10.8v2.8h-1.4v1.2h1.4v6.8h1.4v-6.8h1.6v-1.2h-1.6v-2.8zm4.2 3.3c-.4.4-.7 1-.7 1.6 0 .5.1.9.4 1.3.3.4.7.7 1.5 1.1.8.4 1.1.6 1.2.8.2.2.2.4.2.6 0 .3-.1.5-.3.7-.2.2-.5.3-.9.3-.5 0-1-.3-1.4-.8l-.2-.2-.9 1 .1.1c.3.4.6.6 1.1.8.4.2.9.3 1.3.3.7 0 1.3-.2 1.8-.7s.7-1 .7-1.7c0-.5-.1-.9-.4-1.3-.3-.4-.8-.8-1.5-1.1-.6-.3-.9-.5-1.1-.7s-.2-.4-.2-.6c0-.2.1-.4.3-.6.2-.2.4-.3.7-.3.4 0 .9.2 1.4.7l.1.1.9-.9-.1-.1c-.7-.7-1.5-1.1-2.2-1.1-.8 0-1.4.2-1.8.7m4.3 7.2c.1.1.2.1.3.1.1 0 .2-.1.2-.2s-.1-.1-.2-.2l-.1-.1c-.1 0-.2-.1-.2-.2s.1-.3.3-.3c.1 0 .2 0 .3.1l-.1.1c-.1-.1-.1-.1-.2-.1s-.2.1-.2.1c0 .1.1.1.2.2l.1.1c.1 0 .2.1.2.3s-.1.3-.3.3c-.2.1-.3.1-.3-.2z"/><path class="st0" d="M207.1 33.4h.1l.2.5.1.2.1-.2.2-.5h.1v.9h-.1v-.8l-.1.2-.2.5h-.1l-.2-.5-.1-.3v.9h-.1v-.9h.1z"/></svg>